<?xml version="1.0" encoding="UTF-8" standalone="no"?>
<!-- Created with Inkscape (http://www.inkscape.org/) -->

<svg
   width="85.515999mm"
   height="24.297001mm"
   viewBox="0 0 85.515998 24.297001"
   version="1.1"
   id="svg5"
   xml:space="preserve"
   sodipodi:docname="audition-dark.svg"
   inkscape:version="1.3 (0e150ed6c4, 2023-07-21)"
   xmlns:inkscape="http://www.inkscape.org/namespaces/inkscape"
   xmlns:sodipodi="http://sodipodi.sourceforge.net/DTD/sodipodi-0.dtd"
   xmlns="http://www.w3.org/2000/svg"
   xmlns:svg="http://www.w3.org/2000/svg"><sodipodi:namedview
     id="namedview1"
     pagecolor="#ffffff"
     bordercolor="#666666"
     borderopacity="1.0"
     inkscape:showpageshadow="2"
     inkscape:pageopacity="0.0"
     inkscape:pagecheckerboard="0"
     inkscape:deskcolor="#d1d1d1"
     inkscape:document-units="mm"
     inkscape:zoom="5.8122808"
     inkscape:cx="116.13341"
     inkscape:cy="45.507092"
     inkscape:window-width="2560"
     inkscape:window-height="1537"
     inkscape:window-x="1672"
     inkscape:window-y="-8"
     inkscape:window-maximized="1"
     inkscape:current-layer="text295-4" /><defs
     id="defs2" /><g
     id="layer1"
     transform="translate(-68.409008,-18.635062)"><g
       aria-label="Audition"
       id="text295-4"
       style="font-size:19.7556px;line-height:1.25;font-family:Impact;-inkscape-font-specification:Impact;stroke-width:0.264583"
       transform="translate(11.118727,67.918031)"><path
         d="m 75.989557,-40.876262 v 12.800625 h -3.372644 l 0.05744,-1.061091 q -0.34465,0.646301 -0.853419,0.974275 -0.500563,0.318327 -1.157039,0.318327 -0.746741,0 -1.239097,-0.308681 -0.492358,-0.308681 -0.73033,-0.819934 -0.229766,-0.511254 -0.287208,-1.061092 -0.05744,-0.559485 -0.05744,-2.209 v -8.633429 h 3.315203 v 8.710599 q 0,1.495175 0.07386,1.774917 0.08206,0.279742 0.426709,0.279742 0.369267,0 0.434915,-0.289388 0.07386,-0.289389 0.07386,-1.861734 v -8.614136 z"
         id="path457"
         style="fill:#d9d1c9;fill-opacity:1;stroke-width:0.244032" /><path
         d="m 84.720686,-43.692979 v 15.617342 h -3.315203 v -0.926043 q -0.475945,0.578777 -1.001126,0.868166 -0.52518,0.289388 -1.099597,0.289388 -0.771359,0 -1.337569,-0.472668 -0.56621,-0.482314 -0.73033,-1.109323 -0.155913,-0.627009 -0.155913,-2.045013 v -5.990346 q 0,-1.475882 0.155913,-2.093245 0.16412,-0.617362 0.738536,-1.080384 0.574416,-0.472668 1.370393,-0.472668 0.615446,0 1.124215,0.26045 0.516975,0.26045 0.935478,0.781349 v -3.627005 z m -3.315203,6.038577 q 0,-0.704179 -0.106677,-0.945336 -0.09847,-0.241157 -0.402092,-0.241157 -0.295414,0 -0.402091,0.221865 -0.09847,0.212218 -0.09847,0.964628 v 6.270088 q 0,0.78135 0.09847,1.032153 0.09847,0.241157 0.377473,0.241157 0.320032,0 0.42671,-0.270096 0.106677,-0.279742 0.106677,-1.35048 z"
         id="path459"
         style="fill:#d9d1c9;fill-opacity:1;stroke-width:0.244032" /><path
         d="m 89.324224,-43.692979 v 2.035367 h -3.413676 v -2.035367 z m 0,2.816717 v 12.800625 h -3.413676 v -12.800625 z"
         id="path461"
         style="fill:#d9d1c9;fill-opacity:1;stroke-width:0.244032" /><path
         d="m 94.009817,-42.583655 v 2.016074 h 0.89445 v 2.025721 h -0.89445 v 6.848865 q 0,1.263664 0.10668,1.408358 0.11488,0.144695 0.92727,0.144695 v 2.064305 h -1.33757 q -1.13242,0 -1.61657,-0.106109 -0.48416,-0.115755 -0.85342,-0.511253 -0.36927,-0.405144 -0.45953,-0.916398 -0.0903,-0.520899 -0.0903,-2.430864 v -6.501599 h -0.71392 v -2.025721 h 0.71392 v -2.016074 z"
         id="path463"
         style="fill:#d9d1c9;fill-opacity:1;stroke-width:0.244032" /><path
         d="m 99.048267,-43.692979 v 2.035367 h -3.41367 v -2.035367 z m 0,2.816717 v 12.800625 h -3.41367 v -12.800625 z"
         id="path465"
         style="fill:#d9d1c9;fill-opacity:1;stroke-width:0.244032" /><path
         d="m 107.73837,-36.381091 v 3.135044 q 0,1.726685 -0.1477,2.536974 -0.14771,0.800642 -0.63187,1.504821 -0.48415,0.694532 -1.24729,1.032153 -0.75495,0.327973 -1.73967,0.327973 -1.0996,0 -1.86274,-0.279742 -0.76316,-0.289389 -1.18987,-0.85852 -0.41851,-0.578777 -0.59903,-1.389065 -0.18053,-0.819935 -0.18053,-2.450158 v -3.279738 q 0,-1.784564 0.32823,-2.787778 0.32824,-1.003214 1.18166,-1.61093 0.85342,-0.607716 2.18278,-0.607716 1.11601,0 1.91199,0.395498 0.80418,0.385851 1.23909,1.01286 0.43492,0.627009 0.59084,1.292603 0.16411,0.665594 0.16411,2.025721 z m -3.3152,-0.964629 q 0,-0.983922 -0.0903,-1.234725 -0.0903,-0.26045 -0.38567,-0.26045 -0.29542,0 -0.39389,0.26045 -0.0985,0.250803 -0.0985,1.234725 v 5.778127 q 0,0.906751 0.0985,1.186493 0.0985,0.270096 0.38568,0.270096 0.29542,0 0.38568,-0.250803 0.0985,-0.250804 0.0985,-1.080384 z"
         id="path467"
         style="fill:#d9d1c9;fill-opacity:1;stroke-width:0.244032" /><path
         d="m 112.20241,-40.876262 -0.0574,1.176847 q 0.36105,-0.704179 0.87803,-1.051445 0.52518,-0.356913 1.20627,-0.356913 0.85342,0 1.39501,0.472668 0.5416,0.472668 0.69751,1.19614 0.15592,0.713825 0.15592,2.39228 v 8.971048 h -3.31521 v -8.864939 q 0,-1.321542 -0.0738,-1.61093 -0.0738,-0.289389 -0.41029,-0.289389 -0.35286,0 -0.44312,0.33762 -0.0903,0.327974 -0.0903,1.774917 v 8.652721 h -3.3152 v -12.800625 z"
         id="path469"
         style="fill:#d9d1c9;fill-opacity:1;stroke-width:0.244032" /><path
         id="rect10032"
         style="fill:#d9d1c9;fill-opacity:1;stroke-width:0.238576;stroke-linecap:round;stroke-linejoin:bevel;stroke-miterlimit:5"
         d="m 141.36008,-48.224636 -20.61476,2.936255 0.34158,2.395203 a 0.65497357,0.65497357 0 0 0 -0.49144,0.633036 0.65497357,0.65497357 0 0 0 0.51728,0.638721 l -0.39894,3.360001 -0.87695,7.378361 -0.15399,1.299146 c -0.0884,0.743512 0.40895,1.409525 1.11517,1.493449 l 18.12758,2.15439 c 0.70623,0.08393 1.34567,-0.4471 1.43402,-1.190625 l 0.15451,-1.299662 0.87695,-7.377844 0.47336,-3.98322 -19.96726,-2.372465 a 0.65497357,0.65497357 0 0 0 0.008,-0.100252 0.65497357,0.65497357 0 0 0 -0.005,-0.07493 l 19.89439,-2.833935 z m -1.40921,0.555522 -1.74201,2.629814 -2.23088,0.31781 1.74253,-2.629814 z m -4.60644,0.682646 -1.74253,2.629813 -2.23035,0.31781 1.74253,-2.629813 z m -4.47414,0.63717 -1.74253,2.629814 -2.23036,0.31781 1.74253,-2.629814 z m -4.43539,0.632003 -1.74253,2.629813 -2.23036,0.317811 1.74253,-2.629814 z m -3.92431,3.956864 2.23707,0.266134 1.80299,2.588472 -2.23707,-0.265616 z m 4.44882,0.52865 2.23708,0.266134 1.80299,2.588472 -2.23708,-0.265617 z m 4.48758,0.533301 2.23759,0.266134 1.803,2.588472 -2.23759,-0.265617 z m 4.62143,0.575675 2.23707,0.265617 1.80299,2.58899 -2.23707,-0.266134 z m -13.33614,2.964677 c 0.0208,-0.0017 0.0425,-0.0015 0.0641,10e-4 l 16.31167,1.938383 c 0.17295,0.02055 0.29547,0.176381 0.27491,0.349332 -0.0205,0.172953 -0.17586,0.295989 -0.34881,0.275436 l -16.31218,-1.938383 c -0.17296,-0.02055 -0.29548,-0.17638 -0.27492,-0.349333 0.018,-0.151334 0.13929,-0.264389 0.28525,-0.276469 z m -0.48886,3.348116 c 0.0208,-0.0017 0.0419,-0.0015 0.0636,10e-4 l 16.31219,1.938383 c 0.17295,0.02055 0.29547,0.17638 0.27492,0.349333 -0.0206,0.172952 -0.17638,0.295471 -0.34934,0.274918 l -16.31166,-1.938383 c -0.17296,-0.02055 -0.29599,-0.17638 -0.27544,-0.349332 0.018,-0.151334 0.13981,-0.263873 0.28577,-0.275953 z m -0.41393,3.480925 c 0.0209,-0.0017 0.0425,-0.0015 0.0641,0.001 l 16.31167,1.938383 c 0.17295,0.02055 0.29599,0.17638 0.27543,0.349333 -0.0206,0.172954 -0.17638,0.295472 -0.34933,0.274919 l -16.31218,-1.938383 c -0.17295,-0.02055 -0.29547,-0.176379 -0.27492,-0.349333 0.018,-0.151334 0.13929,-0.263873 0.28525,-0.275952 z" /><g
         id="g2" /></g><g
       id="g1"><path
         id="path455"
         style="font-size:19.7556px;line-height:1.25;font-family:Impact;-inkscape-font-specification:Impact;fill:#d9d1c9;fill-opacity:1;stroke-width:0.327353"
         d="m 60.902465,-47.397813 -2.55385,19.322335 h 2.584855 l 0.298173,-3.473173 h 1.802474 l 0.250631,3.473173 h 4.247803 l -1.342554,-19.322335 z m 4.675166,1.150318 0.138493,1.851049 -2.946073,0.102837 -0.138493,-1.85105 z m 0.230994,3.085083 0.13901,1.851049 -2.946074,0.102837 -0.139009,-1.85105 z m -3.681946,0.08475 c 0.25461,3.214435 0.363443,5.915855 0.61805,8.103898 h -1.572513 c 0.127304,-1.710652 0.445247,-4.412072 0.954463,-8.103898 z m 3.91294,3.000334 0.139009,1.850533 -2.946073,0.102836 -0.138493,-1.850533 z m 0.23151,3.085083 0.138493,1.850533 -2.946073,0.102836 -0.138493,-1.850533 z m 0.230994,3.084566 0.138493,1.85105 -2.945557,0.103353 -0.13901,-1.851567 z m 0.230993,3.085083 0.13901,1.85105 -2.946073,0.103353 -0.13901,-1.851567 z"
         transform="translate(11.118726,67.918031)" /></g></g></svg>
