<?xml version="1.0" encoding="UTF-8" standalone="no"?>
<!-- Created with Inkscape (http://www.inkscape.org/) -->

<svg
   width="270"
   height="98"
   viewBox="0 0 71.437499 25.929168"
   version="1.1"
   id="svg5"
   xml:space="preserve"
   xmlns="http://www.w3.org/2000/svg"
   xmlns:svg="http://www.w3.org/2000/svg"><defs
     id="defs2" /><g
     id="layer1"
     transform="translate(-68.409008,-18.635062)"><g
       aria-label="Audition"
       id="text295-4"
       style="font-size:19.7556px;line-height:1.25;font-family:Impact;-inkscape-font-specification:Impact;stroke-width:0.264583"
       transform="translate(11.118727,67.918031)"><g
         id="g2" /><path
         style="font-size:14.0426px;line-height:1.25;font-family:Koulen;-inkscape-font-specification:Koulen;fill:#d9d1c9;fill-opacity:1;stroke-width:0.0707392"
         d="m 72.867641,-25.23632 q -0.805734,0 -1.492099,-0.417789 -0.686365,-0.417785 -1.096693,-1.11907 -0.402867,-0.708749 -0.402867,-1.544323 l 0.02984,-7.639543 q 0,-0.05968 0.0597,-0.05968 h 1.715912 q 0.0597,0 0.0597,0.05968 v 7.639543 q 0,0.514771 0.32826,0.880339 0.328263,0.358102 0.798275,0.358102 0.492393,0 0.820654,-0.358102 0.328261,-0.365568 0.328261,-0.880339 v -7.639543 q 0,-0.05968 0.05968,-0.05968 h 1.715912 q 0.0597,0 0.0597,0.05968 l 0.02984,7.639543 q 0,0.843034 -0.402867,1.551782 -0.41033,0.701287 -1.089234,1.119074 -0.678903,0.410326 -1.52194,0.410326 z m 7.027783,-0.164132 -2.738002,0.01494 q -0.07461,0 -0.07461,-0.07461 l 0.02984,-10.496912 q 0,-0.0597 0.0597,-0.0597 l 2.857366,-0.01494 q 0.850496,-0.0223 1.536863,0.387945 0.693824,0.41033 1.104149,1.111614 0.41779,0.693825 0.41779,1.53686 v 4.386769 q 0,0.880338 -0.425251,1.611469 -0.432706,0.723666 -1.148915,1.156375 -0.716207,0.425247 -1.618926,0.44017 z m 0.134271,-8.803382 -1.066851,0.01494 -0.01495,6.923336 h 0.947485 q 0.566996,0 0.954943,-0.395408 0.387946,-0.395406 0.387946,-0.947483 v -4.401689 q 0,-0.484932 -0.358105,-0.843037 -0.358102,-0.365563 -0.850495,-0.350643 z m 6.065382,8.818302 H 84.36424 q -0.07461,0 -0.07461,-0.07461 l 0.01494,-10.496909 q 0,-0.0597 0.0597,-0.0597 h 1.715916 q 0.0597,0 0.0597,0.0597 l 0.01495,10.496909 q 0,0.07461 -0.0597,0.07461 z m 4.662806,0 h -1.723376 q -0.06712,0 -0.06712,-0.07461 v -8.71385 h -1.984489 q -0.07461,0 -0.07461,-0.07461 l 0.01495,-1.708456 q 0,-0.0597 0.0597,-0.0597 h 5.804269 q 0.08204,0 0.08204,0.0597 v 1.708456 q 0,0.07461 -0.05971,0.07461 h -2.00687 l 0.01494,8.71385 q 0,0.07461 -0.05971,0.07461 z m 4.655341,0 h -1.730815 q -0.07465,0 -0.07465,-0.07461 l 0.01494,-10.496909 q 0,-0.0597 0.05971,-0.0597 h 1.715849 q 0.05971,0 0.05971,0.0597 l 0.01486,10.496909 q 0,0.07461 -0.05971,0.07461 z m 4.230096,0.149214 q -0.813186,0 -1.49956,-0.417788 -0.678899,-0.417788 -1.096688,-1.111614 -0.410323,-0.701284 -0.410323,-1.536859 l 0.01495,-4.841861 q 0,-0.850495 0.410324,-1.529399 0.402858,-0.686366 1.089222,-1.096693 0.686374,-0.417785 1.492115,-0.417785 0.83558,0 1.49956,0.410324 0.67144,0.410326 1.07431,1.104154 0.41032,0.686363 0.41032,1.529399 l 0.015,4.841861 q 0,0.835575 -0.40286,1.5294 -0.41033,0.701285 -1.08924,1.119073 -0.67889,0.417788 -1.50702,0.417788 z m 0,-1.842743 q 0.46256,0 0.80574,-0.373025 0.34318,-0.380486 0.34318,-0.850493 l -0.0149,-4.841861 q 0,-0.507312 -0.3208,-0.857955 -0.3208,-0.350646 -0.81319,-0.350646 -0.47002,0 -0.805746,0.343184 -0.335721,0.343182 -0.335721,0.865417 v 4.841861 q 0,0.49985 0.335721,0.865416 0.335726,0.358102 0.805746,0.358102 z m 5.81173,1.693531 h -1.5294 q -0.11938,0 -0.11938,-0.104441 l -0.0149,-10.40739 q 0,-0.119375 0.11938,-0.119375 h 1.38018 l 2.58134,6.020614 -0.0748,-5.901249 q 0,-0.119375 0.13429,-0.119375 h 1.5145 q 0.0896,0 0.0896,0.119375 l 0.0149,10.422308 q 0,0.08952 -0.0748,0.08952 h -1.34287 l -2.64849,-5.625211 0.11192,5.505843 q 0,0.119375 -0.14177,0.119375 z"
         id="text15"
         aria-label="udition" /><path
         style="font-size:19.7556px;line-height:1.25;font-family:Impact;-inkscape-font-specification:Impact;fill:#d9d1c9;fill-opacity:1;stroke:none;stroke-width:0.267362px;stroke-linecap:butt;stroke-linejoin:miter;stroke-opacity:1"
         d="m 116.96355,-47.945018 -0.0977,5.076446 -4.73472,0.897268 -0.48859,0.662369 h 1.04086 l 5.02813,-1.128902 0.0707,-5.499288 -0.38633,-0.0729 z"
         id="path1" /><path
         style="font-size:19.7556px;line-height:1.25;font-family:Impact;-inkscape-font-specification:Impact;fill:#d9d1c9;fill-opacity:1;stroke:none;stroke-width:0.267362px;stroke-linecap:butt;stroke-linejoin:miter;stroke-opacity:1"
         d="m 127.53466,-48.071179 -0.16272,5.462818 -3.83813,0.84569 -0.34828,0.644948 1.09638,0.0381 3.80561,-1.105902 0.13018,-5.919819 -0.34152,-0.05193 z"
         id="path2" /><path
         style="font-size:19.7556px;line-height:1.25;font-family:Impact;-inkscape-font-specification:Impact;fill:#d9d1c9;fill-opacity:1;stroke:none;stroke-width:0.267362px;stroke-linecap:butt;stroke-linejoin:miter;stroke-opacity:1"
         d="m 117.61407,-47.292177 h 9.92059 l -0.13018,3.708023 h -9.98565 z"
         id="path3" /><path
         style="font-size:19.7556px;line-height:1.25;font-family:Impact;-inkscape-font-specification:Impact;fill:#d9d1c9;fill-opacity:1;stroke:none;stroke-width:0.267362px;stroke-linecap:butt;stroke-linejoin:miter;stroke-opacity:1"
         d="m 116.89455,-42.478255 -0.0323,3.317703 -4.74542,1.398639 -0.0323,0.552951 0.74249,0.84569 5.32649,-1.788956 v -1.138432 l -0.48975,-0.11664 0.0418,-3.359756 z"
         id="path4" /><path
         style="font-size:19.7556px;line-height:1.25;font-family:Impact;-inkscape-font-specification:Impact;fill:#d9d1c9;fill-opacity:1;stroke:none;stroke-width:0.267363px;stroke-linecap:butt;stroke-linejoin:miter;stroke-opacity:1"
         d="m 112.7351,-41.604458 c 0.0976,0.377723 0.16261,3.852749 0.16261,3.852749 l 0.618,-0.03777 -0.19515,-4.268241 z"
         id="path5" /><path
         style="font-size:19.7556px;line-height:1.25;font-family:Impact;-inkscape-font-specification:Impact;fill:#d9d1c9;fill-opacity:1;stroke:none;stroke-width:0.267362px;stroke-linecap:butt;stroke-linejoin:miter;stroke-opacity:1"
         d="m 123.30621,-37.436646 -0.0651,0.878212 -0.45537,0.195165 0.55293,0.683058 1.20349,-0.683058 3.93571,-1.496215 -0.0326,-0.878217 -1.26854,-0.260212 z"
         id="path6" /><path
         style="font-size:19.7556px;line-height:1.25;font-family:Impact;-inkscape-font-specification:Impact;fill:#d9d1c9;fill-opacity:1;stroke:none;stroke-width:0.267362px;stroke-linecap:butt;stroke-linejoin:miter;stroke-opacity:1"
         d="m 123.91862,-41.342138 0.006,3.840439 0.71561,-0.162615 0.0595,-3.710332 z"
         id="path7" /><path
         style="font-size:19.7556px;line-height:1.25;font-family:Impact;-inkscape-font-specification:Impact;fill:#d9d1c9;fill-opacity:1;stroke:none;stroke-width:0.267362px;stroke-linecap:butt;stroke-linejoin:miter;stroke-opacity:1"
         d="m 127.37202,-41.990359 -0.0977,3.415282 0.73699,-0.143558 0.0612,-3.629495 z"
         id="path8" /><path
         style="font-size:19.7556px;line-height:1.25;font-family:Impact;-inkscape-font-specification:Impact;fill:#d9d1c9;fill-opacity:1;stroke:none;stroke-width:0.267362px;stroke-linecap:butt;stroke-linejoin:miter;stroke-opacity:1"
         d="m 112.98905,-37.116962 10.65357,0.564788 3.27635,-1.835633 -9.85785,-0.414952 z"
         id="path9" /><path
         style="font-size:19.7556px;line-height:1.25;font-family:Impact;-inkscape-font-specification:Impact;fill:#d9d1c9;fill-opacity:1;stroke:none;stroke-width:0.267362px;stroke-linecap:butt;stroke-linejoin:miter;stroke-opacity:1"
         d="m 113.15794,-36.721065 10.28,11.187763 0.80481,0.03367 0.34709,-0.414474 -10.4561,-11.002127 z"
         id="path10" /><path
         style="font-size:19.7556px;line-height:1.25;font-family:Impact;-inkscape-font-specification:Impact;fill:#d9d1c9;fill-opacity:1;stroke:none;stroke-width:0.267362px;stroke-linecap:butt;stroke-linejoin:miter;stroke-opacity:1"
         d="m 117.80855,-37.092329 8.85539,9.621586 0.526,-0.0036 0.3352,-0.342005 -8.77291,-9.294689 z"
         id="path11" /><path
         style="font-size:19.7556px;line-height:1.25;font-family:Impact;-inkscape-font-specification:Impact;fill:#d9d1c9;fill-opacity:1;stroke:none;stroke-width:0.267362px;stroke-linecap:butt;stroke-linejoin:miter;stroke-opacity:1"
         d="m 124.15188,-36.753591 c -1.33356,0.715583 -10.87288,10.262787 -10.87288,10.262787 l 0.83797,0.145672 0.53554,-0.337106 10.18245,-9.843686 z"
         id="path12" /><path
         style="font-size:19.7556px;line-height:1.25;font-family:Impact;-inkscape-font-specification:Impact;fill:#d9d1c9;fill-opacity:1;stroke:none;stroke-width:0.267362px;stroke-linecap:butt;stroke-linejoin:miter;stroke-opacity:1"
         d="m 126.85158,-37.566754 -9.57837,9.840421 0.7337,0.133398 0.6124,-0.318048 9.50082,-9.883434 -1.43117,0.292738 z"
         id="path13" /><path
         style="font-size:19.7556px;line-height:1.25;font-family:Impact;-inkscape-font-specification:Impact;fill:#d9d1c9;fill-opacity:1;stroke:none;stroke-width:0.267362px;stroke-linecap:butt;stroke-linejoin:miter;stroke-opacity:1"
         d="m 122.25055,-27.22795 3.63507,-1.896063 0.6758,0.623582 -3.64226,2.091899 z"
         id="path14" /><path
         style="font-size:19.7556px;line-height:1.25;font-family:Impact;-inkscape-font-specification:Impact;fill:#d9d1c9;fill-opacity:1;stroke:none;stroke-width:0.267362px;stroke-linecap:butt;stroke-linejoin:miter;stroke-opacity:1"
         d="m 115.66015,-28.29112 3.82438,-1.715055 -0.3673,0.763217 -4.05275,1.790312 z"
         id="path15" /><g
         id="g4"
         style="font-size:19.7556px;line-height:1.25;font-family:Impact;-inkscape-font-specification:Impact;fill:#d9d1c9;fill-opacity:1;stroke-width:0.264583"
         transform="matrix(1.2315433,0,0,1.2315433,-28.113185,-74.304156)"><path
           id="path455-6"
           style="font-size:19.7556px;line-height:1.25;font-family:Impact;-inkscape-font-specification:Impact;fill:#d9d1c9;fill-opacity:1;stroke-width:0.327353"
           d="m 60.902465,-47.397813 -2.55385,19.322335 h 2.584855 l 0.298173,-3.473173 h 1.802474 l 0.250631,3.473173 h 4.247803 l -1.342554,-19.322335 z m 4.675166,1.150318 0.138493,1.851049 -2.946073,0.102837 -0.138493,-1.85105 z m 0.230994,3.085083 0.13901,1.851049 -2.946074,0.102837 -0.139009,-1.85105 z m -3.681946,0.08475 c 0.25461,3.214435 0.363443,5.915855 0.61805,8.103898 h -1.572513 c 0.127304,-1.710652 0.445247,-4.412072 0.954463,-8.103898 z m 3.91294,3.000334 0.139009,1.850533 -2.946073,0.102836 -0.138493,-1.850533 z m 0.23151,3.085083 0.138493,1.850533 -2.946073,0.102836 -0.138493,-1.850533 z m 0.230994,3.084566 0.138493,1.85105 -2.945557,0.103353 -0.13901,-1.851567 z m 0.230993,3.085083 0.13901,1.85105 -2.946073,0.103353 -0.13901,-1.851567 z"
           transform="translate(11.118726,67.918031)" /></g></g></g></svg>
